{
	"patcher" : 	{
		"fileversion" : 1,
		"appversion" : 		{
			"major" : 7,
			"minor" : 2,
			"revision" : 3,
			"architecture" : "x86",
			"modernui" : 1
		}
,
		"rect" : [ 34.0, 79.0, 698.0, 933.0 ],
		"bgcolor" : [ 0.239216, 0.254902, 0.278431, 0.0 ],
		"editing_bgcolor" : [ 0.32549, 0.345098, 0.372549, 1.0 ],
		"bglocked" : 0,
		"openinpresentation" : 1,
		"default_fontsize" : 12.0,
		"default_fontface" : 0,
		"default_fontname" : "Arial",
		"gridonopen" : 1,
		"gridsize" : [ 15.0, 15.0 ],
		"gridsnaponopen" : 1,
		"objectsnaponopen" : 1,
		"statusbarvisible" : 2,
		"toolbarvisible" : 1,
		"lefttoolbarpinned" : 0,
		"toptoolbarpinned" : 0,
		"righttoolbarpinned" : 0,
		"bottomtoolbarpinned" : 0,
		"toolbars_unpinned_last_save" : 0,
		"tallnewobj" : 0,
		"boxanimatetime" : 200,
		"enablehscroll" : 1,
		"enablevscroll" : 1,
		"devicewidth" : 0.0,
		"description" : "",
		"digest" : "",
		"tags" : "",
		"style" : "",
		"subpatcher_template" : "",
		"boxes" : [ 			{
				"box" : 				{
					"id" : "obj-21",
					"linecolor" : [ 1.0, 1.0, 1.0, 1.0 ],
					"maxclass" : "live.line",
					"numinlets" : 1,
					"numoutlets" : 0,
					"patching_rect" : [ 258.0, -30.0, 5.0, 30.0 ],
					"presentation" : 1,
					"presentation_rect" : [ 259.0, 0.0, 12.0, 129.5 ]
				}

			}
, 			{
				"box" : 				{
					"align" : 1,
					"allowdrag" : 0,
					"bgcolor" : [ 0.2, 0.2, 0.2, 1.0 ],
					"bgfillcolor_angle" : 270.0,
					"bgfillcolor_color" : [ 0.2, 0.2, 0.2, 1.0 ],
					"bgfillcolor_color1" : [ 0.376471, 0.384314, 0.4, 1.0 ],
					"bgfillcolor_color2" : [ 0.290196, 0.309804, 0.301961, 1.0 ],
					"bgfillcolor_proportion" : 0.39,
					"bgfillcolor_type" : "color",
					"id" : "obj-19",
					"items" : [ "-8va", ",", "-M7", ",", "-m7", ",", "-M6", ",", "-m6", ",", "-P5", ",", "-Tritone", ",", "-P4", ",", "-M3", ",", "-m3", ",", "-M2", ",", "-m2", ",", "unison", ",", "m2", ",", "M2", ",", "m3", ",", "M3", ",", "P4", ",", "Tritone", ",", "P5", ",", "m6", ",", "M6", ",", "m7", ",", "M7", ",", "8va", ",", "m2-va", ",", "M2-va", ",", "m3-va", ",", "M3-va", ",", "P4-va", ",", "Tritone-va", ",", "P5-va", ",", "m6-va", ",", "M6-va", ",", "m7-va", ",", "M7-va", ",", "8va-va" ],
					"maxclass" : "umenu",
					"menumode" : 2,
					"numinlets" : 1,
					"numoutlets" : 3,
					"outlettype" : [ "int", "", "" ],
					"parameter_enable" : 0,
					"patching_rect" : [ 535.0, 302.5, 100.0, 22.0 ],
					"presentation" : 1,
					"presentation_rect" : [ 208.0, 2.5, 49.0, 22.0 ],
					"style" : "",
					"textcolor" : [ 0.901961, 0.901961, 0.901961, 1.0 ],
					"textjustification" : 1
				}

			}
, 			{
				"box" : 				{
					"align" : 1,
					"allowdrag" : 0,
					"bgcolor" : [ 0.2, 0.2, 0.2, 1.0 ],
					"bgfillcolor_angle" : 270.0,
					"bgfillcolor_color" : [ 0.2, 0.2, 0.2, 1.0 ],
					"bgfillcolor_color1" : [ 0.376471, 0.384314, 0.4, 1.0 ],
					"bgfillcolor_color2" : [ 0.290196, 0.309804, 0.301961, 1.0 ],
					"bgfillcolor_proportion" : 0.39,
					"bgfillcolor_type" : "color",
					"id" : "obj-17",
					"items" : [ "-8va", ",", "-M7", ",", "-m7", ",", "-M6", ",", "-m6", ",", "-P5", ",", "-Tritone", ",", "-P4", ",", "-M3", ",", "-m3", ",", "-M2", ",", "-m2", ",", "unison", ",", "m2", ",", "M2", ",", "m3", ",", "M3", ",", "P4", ",", "Tritone", ",", "P5", ",", "m6", ",", "M6", ",", "m7", ",", "M7", ",", "8va", ",", "m2-va", ",", "M2-va", ",", "m3-va", ",", "M3-va", ",", "P4-va", ",", "Tritone-va", ",", "P5-va", ",", "m6-va", ",", "M6-va", ",", "m7-va", ",", "M7-va", ",", "8va-va" ],
					"maxclass" : "umenu",
					"menumode" : 2,
					"numinlets" : 1,
					"numoutlets" : 3,
					"outlettype" : [ "int", "", "" ],
					"parameter_enable" : 0,
					"patching_rect" : [ 430.0, 302.5, 100.0, 22.0 ],
					"presentation" : 1,
					"presentation_rect" : [ 156.0, 2.5, 49.0, 22.0 ],
					"style" : "",
					"textcolor" : [ 0.901961, 0.901961, 0.901961, 1.0 ],
					"textjustification" : 1
				}

			}
, 			{
				"box" : 				{
					"align" : 1,
					"allowdrag" : 0,
					"bgcolor" : [ 0.2, 0.2, 0.2, 1.0 ],
					"bgfillcolor_angle" : 270.0,
					"bgfillcolor_color" : [ 0.2, 0.2, 0.2, 1.0 ],
					"bgfillcolor_color1" : [ 0.376471, 0.384314, 0.4, 1.0 ],
					"bgfillcolor_color2" : [ 0.290196, 0.309804, 0.301961, 1.0 ],
					"bgfillcolor_proportion" : 0.39,
					"bgfillcolor_type" : "color",
					"id" : "obj-18",
					"items" : [ "-8va", ",", "-M7", ",", "-m7", ",", "-M6", ",", "-m6", ",", "-P5", ",", "-Tritone", ",", "-P4", ",", "-M3", ",", "-m3", ",", "-M2", ",", "-m2", ",", "unison", ",", "m2", ",", "M2", ",", "m3", ",", "M3", ",", "P4", ",", "Tritone", ",", "P5", ",", "m6", ",", "M6", ",", "m7", ",", "M7", ",", "8va", ",", "m2-va", ",", "M2-va", ",", "m3-va", ",", "M3-va", ",", "P4-va", ",", "Tritone-va", ",", "P5-va", ",", "m6-va", ",", "M6-va", ",", "m7-va", ",", "M7-va", ",", "8va-va" ],
					"maxclass" : "umenu",
					"menumode" : 2,
					"numinlets" : 1,
					"numoutlets" : 3,
					"outlettype" : [ "int", "", "" ],
					"parameter_enable" : 0,
					"patching_rect" : [ 325.0, 302.5, 100.0, 22.0 ],
					"presentation" : 1,
					"presentation_rect" : [ 104.0, 2.5, 49.0, 22.0 ],
					"style" : "",
					"textcolor" : [ 0.901961, 0.901961, 0.901961, 1.0 ],
					"textjustification" : 1
				}

			}
, 			{
				"box" : 				{
					"align" : 1,
					"allowdrag" : 0,
					"bgcolor" : [ 0.2, 0.2, 0.2, 1.0 ],
					"bgfillcolor_angle" : 270.0,
					"bgfillcolor_color" : [ 0.2, 0.2, 0.2, 1.0 ],
					"bgfillcolor_color1" : [ 0.376471, 0.384314, 0.4, 1.0 ],
					"bgfillcolor_color2" : [ 0.290196, 0.309804, 0.301961, 1.0 ],
					"bgfillcolor_proportion" : 0.39,
					"bgfillcolor_type" : "color",
					"id" : "obj-14",
					"items" : [ "-8va", ",", "-M7", ",", "-m7", ",", "-M6", ",", "-m6", ",", "-P5", ",", "-Tritone", ",", "-P4", ",", "-M3", ",", "-m3", ",", "-M2", ",", "-m2", ",", "unison", ",", "m2", ",", "M2", ",", "m3", ",", "M3", ",", "P4", ",", "Tritone", ",", "P5", ",", "m6", ",", "M6", ",", "m7", ",", "M7", ",", "8va", ",", "m2-va", ",", "M2-va", ",", "m3-va", ",", "M3-va", ",", "P4-va", ",", "Tritone-va", ",", "P5-va", ",", "m6-va", ",", "M6-va", ",", "m7-va", ",", "M7-va", ",", "8va-va" ],
					"maxclass" : "umenu",
					"menumode" : 2,
					"numinlets" : 1,
					"numoutlets" : 3,
					"outlettype" : [ "int", "", "" ],
					"parameter_enable" : 0,
					"patching_rect" : [ 220.0, 302.5, 100.0, 22.0 ],
					"presentation" : 1,
					"presentation_rect" : [ 52.0, 2.5, 49.0, 22.0 ],
					"style" : "",
					"textcolor" : [ 0.901961, 0.901961, 0.901961, 1.0 ],
					"textjustification" : 1
				}

			}
, 			{
				"box" : 				{
					"active1" : [ 0.79, 0.83, 1.0, 1.0 ],
					"bgcolor" : [ 0.0, 0.0, 0.0, 1.0 ],
					"bubblesize" : 16,
					"emptycolor" : [ 0.2, 0.2, 0.2, 1.0 ],
					"id" : "obj-6",
					"maxclass" : "preset",
					"numinlets" : 1,
					"numoutlets" : 4,
					"outlettype" : [ "preset", "int", "preset", "int" ],
					"patching_rect" : [ 347.0, 499.0, 100.0, 40.0 ],
					"pattrstorage" : "harmonizer",
					"presentation" : 1,
					"presentation_rect" : [ 268.0, 0.0, 44.0, 330.0 ],
					"stored1" : [ 0.011765, 0.396078, 0.752941, 1.0 ],
					"style" : "",
					"textcolor" : [ 1.0, 1.0, 1.0, 1.0 ]
				}

			}
, 			{
				"box" : 				{
					"autorestore" : "harmonizer.json",
					"fontname" : "Arial",
					"fontsize" : 12.0,
					"id" : "obj-1",
					"maxclass" : "newobj",
					"numinlets" : 1,
					"numoutlets" : 1,
					"outlettype" : [ "" ],
					"patching_rect" : [ 347.0, 465.0, 314.0, 22.0 ],
					"saved_object_attributes" : 					{
						"client_rect" : [ 1252, 409, 1671, 927 ],
						"parameter_enable" : 0,
						"storage_rect" : [ 220, 49, 871, 244 ]
					}
,
					"style" : "",
					"text" : "pattrstorage harmonizer @changemode 1 @savemode 1",
					"varname" : "harmonizer"
				}

			}
, 			{
				"box" : 				{
					"fontname" : "Arial",
					"fontsize" : 12.0,
					"id" : "obj-2",
					"maxclass" : "newobj",
					"numinlets" : 1,
					"numoutlets" : 1,
					"outlettype" : [ "bang" ],
					"patching_rect" : [ 91.0, 60.0, 60.0, 22.0 ],
					"style" : "",
					"text" : "loadbang"
				}

			}
, 			{
				"box" : 				{
					"fontname" : "Arial",
					"fontsize" : 12.0,
					"id" : "obj-39",
					"maxclass" : "newobj",
					"numinlets" : 1,
					"numoutlets" : 5,
					"outlettype" : [ "float", "float", "float", "float", "float" ],
					"patching_rect" : [ 115.0, 267.5, 439.0, 22.0 ],
					"style" : "",
					"text" : "unpack f f f f f"
				}

			}
, 			{
				"box" : 				{
					"fontname" : "Arial",
					"fontsize" : 12.0,
					"id" : "obj-38",
					"maxclass" : "newobj",
					"numinlets" : 1,
					"numoutlets" : 1,
					"outlettype" : [ "" ],
					"patching_rect" : [ 115.0, 240.0, 174.0, 22.0 ],
					"style" : "",
					"text" : "vexpr $f1 + 12 @scalarmode 1"
				}

			}
, 			{
				"box" : 				{
					"align" : 1,
					"allowdrag" : 0,
					"bgcolor" : [ 0.2, 0.2, 0.2, 1.0 ],
					"bgfillcolor_angle" : 270.0,
					"bgfillcolor_color" : [ 0.2, 0.2, 0.2, 1.0 ],
					"bgfillcolor_color1" : [ 0.376471, 0.384314, 0.4, 1.0 ],
					"bgfillcolor_color2" : [ 0.290196, 0.309804, 0.301961, 1.0 ],
					"bgfillcolor_proportion" : 0.39,
					"bgfillcolor_type" : "color",
					"id" : "obj-12",
					"items" : [ "-8va", ",", "-M7", ",", "-m7", ",", "-M6", ",", "-m6", ",", "-P5", ",", "-Tritone", ",", "-P4", ",", "-M3", ",", "-m3", ",", "-M2", ",", "-m2", ",", "unison", ",", "m2", ",", "M2", ",", "m3", ",", "M3", ",", "P4", ",", "Tritone", ",", "P5", ",", "m6", ",", "M6", ",", "m7", ",", "M7", ",", "8va", ",", "m2-va", ",", "M2-va", ",", "m3-va", ",", "M3-va", ",", "P4-va", ",", "Tritone-va", ",", "P5-va", ",", "m6-va", ",", "M6-va", ",", "m7-va", ",", "M7-va", ",", "8va-va" ],
					"maxclass" : "umenu",
					"menumode" : 2,
					"numinlets" : 1,
					"numoutlets" : 3,
					"outlettype" : [ "int", "", "" ],
					"parameter_enable" : 0,
					"patching_rect" : [ 115.0, 302.5, 100.0, 22.0 ],
					"presentation" : 1,
					"presentation_rect" : [ 0.0, 2.5, 49.0, 22.0 ],
					"style" : "",
					"textcolor" : [ 0.901961, 0.901961, 0.901961, 1.0 ],
					"textjustification" : 1
				}

			}
, 			{
				"box" : 				{
					"comment" : "",
					"id" : "obj-32",
					"maxclass" : "inlet",
					"numinlets" : 0,
					"numoutlets" : 1,
					"outlettype" : [ "" ],
					"patching_rect" : [ 30.0, 15.0, 25.0, 25.0 ],
					"style" : ""
				}

			}
, 			{
				"box" : 				{
					"bgcolor" : [ 0.913725, 0.913725, 0.913725, 0.0 ],
					"blinkcolor" : [ 1.0, 1.0, 1.0, 1.0 ],
					"id" : "obj-13",
					"maxclass" : "button",
					"numinlets" : 1,
					"numoutlets" : 1,
					"outlettype" : [ "bang" ],
					"outlinecolor" : [ 1.0, 0.89, 0.09, 1.0 ],
					"patching_rect" : [ 91.0, 83.0, 32.5, 32.5 ],
					"presentation" : 1,
					"presentation_rect" : [ 251.0, 126.5, 20.0, 20.0 ],
					"style" : ""
				}

			}
, 			{
				"box" : 				{
					"id" : "obj-45",
					"linecolor" : [ 1.0, 1.0, 1.0, 1.0 ],
					"maxclass" : "live.line",
					"numinlets" : 1,
					"numoutlets" : 0,
					"patching_rect" : [ 410.244751, 98.0, 5.0, 30.0 ],
					"presentation" : 1,
					"presentation_rect" : [ 259.0, 144.0, 7.0, 186.0 ]
				}

			}
, 			{
				"box" : 				{
					"id" : "obj-44",
					"linecolor" : [ 1.0, 1.0, 1.0, 1.0 ],
					"maxclass" : "live.line",
					"numinlets" : 1,
					"numoutlets" : 0,
					"patching_rect" : [ 397.494751, 98.0, 5.0, 30.0 ],
					"presentation" : 1,
					"presentation_rect" : [ 206.0, 0.0, 7.0, 330.0 ]
				}

			}
, 			{
				"box" : 				{
					"id" : "obj-43",
					"linecolor" : [ 1.0, 1.0, 1.0, 1.0 ],
					"maxclass" : "live.line",
					"numinlets" : 1,
					"numoutlets" : 0,
					"patching_rect" : [ 386.242065, 98.0, 5.0, 30.0 ],
					"presentation" : 1,
					"presentation_rect" : [ 154.0, 0.0, 7.0, 330.0 ]
				}

			}
, 			{
				"box" : 				{
					"id" : "obj-42",
					"linecolor" : [ 1.0, 1.0, 1.0, 1.0 ],
					"maxclass" : "live.line",
					"numinlets" : 1,
					"numoutlets" : 0,
					"patching_rect" : [ 371.0, 98.0, 5.0, 30.0 ],
					"presentation" : 1,
					"presentation_rect" : [ 102.0, 0.0, 7.0, 330.0 ]
				}

			}
, 			{
				"box" : 				{
					"id" : "obj-37",
					"linecolor" : [ 1.0, 1.0, 1.0, 1.0 ],
					"maxclass" : "live.line",
					"numinlets" : 1,
					"numoutlets" : 0,
					"patching_rect" : [ 424.248657, 98.0, 5.0, 30.0 ],
					"presentation" : 1,
					"presentation_rect" : [ 51.0, 0.0, 7.0, 330.0 ]
				}

			}
, 			{
				"box" : 				{
					"fontname" : "Arial",
					"fontsize" : 12.0,
					"id" : "obj-30",
					"maxclass" : "newobj",
					"numinlets" : 1,
					"numoutlets" : 4,
					"outlettype" : [ "", "", "", "" ],
					"patching_rect" : [ 371.0, 132.5, 59.5, 22.0 ],
					"restore" : 					{
						"Transposition" : [ 0, 0, 0, 0, 0 ],
						"pitchlevels" : [ 0.0, 0.0, 0.0, 0.0, 0.0 ]
					}
,
					"style" : "",
					"text" : "autopattr",
					"varname" : "u592001377"
				}

			}
, 			{
				"box" : 				{
					"comment" : "",
					"id" : "obj-3",
					"maxclass" : "outlet",
					"numinlets" : 1,
					"numoutlets" : 0,
					"patching_rect" : [ 30.0, 681.0, 25.0, 25.0 ],
					"style" : ""
				}

			}
, 			{
				"box" : 				{
					"fontname" : "Arial",
					"fontsize" : 12.0,
					"id" : "obj-15",
					"maxclass" : "message",
					"numinlets" : 2,
					"numoutlets" : 1,
					"outlettype" : [ "" ],
					"patching_rect" : [ 91.0, 120.0, 32.5, 22.0 ],
					"style" : "",
					"text" : "0"
				}

			}
, 			{
				"box" : 				{
					"fontname" : "Arial",
					"fontsize" : 12.0,
					"id" : "obj-10",
					"maxclass" : "newobj",
					"numinlets" : 1,
					"numoutlets" : 1,
					"outlettype" : [ "" ],
					"patching_rect" : [ 91.0, 495.0, 54.0, 22.0 ],
					"style" : "",
					"text" : "list2poly"
				}

			}
, 			{
				"box" : 				{
					"bgcolor" : [ 0.376187, 0.409384, 0.445165, 0.5 ],
					"candycane" : 5,
					"contdata" : 1,
					"ghostbar" : 29,
					"id" : "obj-11",
					"maxclass" : "multislider",
					"numinlets" : 1,
					"numoutlets" : 2,
					"outlettype" : [ "", "" ],
					"parameter_enable" : 0,
					"patching_rect" : [ 91.0, 390.0, 165.0, 90.0 ],
					"presentation" : 1,
					"presentation_rect" : [ 0.0, 246.0, 259.0, 84.0 ],
					"setminmax" : [ 0.0, 1.0 ],
					"size" : 5,
					"slidercolor" : [ 0.501961, 0.25098, 0.0, 1.0 ],
					"style" : "",
					"thickness" : 7,
					"varname" : "pitchlevels"
				}

			}
, 			{
				"box" : 				{
					"fontname" : "Arial",
					"fontsize" : 12.0,
					"id" : "obj-8",
					"maxclass" : "newobj",
					"numinlets" : 1,
					"numoutlets" : 1,
					"outlettype" : [ "" ],
					"patching_rect" : [ 91.0, 345.0, 54.0, 22.0 ],
					"style" : "",
					"text" : "list2poly"
				}

			}
, 			{
				"box" : 				{
					"bgcolor" : [ 0.015686, 0.0, 0.0, 0.15 ],
					"candycane" : 5,
					"contdata" : 1,
					"ghostbar" : 77,
					"id" : "obj-7",
					"maxclass" : "multislider",
					"numinlets" : 1,
					"numoutlets" : 2,
					"outlettype" : [ "", "" ],
					"parameter_enable" : 0,
					"patching_rect" : [ 91.0, 153.0, 165.0, 75.0 ],
					"presentation" : 1,
					"presentation_rect" : [ 0.0, 25.0, 259.0, 217.0 ],
					"setminmax" : [ -12.0, 24.0 ],
					"settype" : 0,
					"signed" : 1,
					"size" : 5,
					"slidercolor" : [ 0.501961, 0.25098, 0.0, 1.0 ],
					"spacing" : 10,
					"style" : "",
					"thickness" : 3,
					"varname" : "Transposition"
				}

			}
, 			{
				"box" : 				{
					"fontname" : "Arial",
					"fontsize" : 12.0,
					"id" : "obj-4",
					"maxclass" : "newobj",
					"numinlets" : 2,
					"numoutlets" : 1,
					"outlettype" : [ "signal" ],
					"patching_rect" : [ 30.0, 525.0, 80.0, 22.0 ],
					"style" : "",
					"text" : "poly~ HarP 5",
					"varname" : "poly~"
				}

			}
, 			{
				"box" : 				{
					"angle" : 90.0,
					"background" : 1,
					"grad1" : [ 0.0, 0.0, 0.0, 1.0 ],
					"grad2" : [ 0.784314, 0.145098, 0.023529, 0.5 ],
					"id" : "obj-16",
					"maxclass" : "panel",
					"mode" : 1,
					"numinlets" : 1,
					"numoutlets" : 0,
					"patching_rect" : [ 632.0, 83.0, 128.0, 128.0 ],
					"presentation" : 1,
					"presentation_rect" : [ 0.0, 25.0, 259.0, 156.0 ],
					"proportion" : 0.14433,
					"pt1" : [ 0.356436, 0.956522 ],
					"pt2" : [ 0.356436, 0.113043 ],
					"rounded" : 0,
					"style" : ""
				}

			}
, 			{
				"box" : 				{
					"angle" : 270.593048,
					"background" : 1,
					"grad1" : [ 0.0, 0.0, 0.0, 1.0 ],
					"grad2" : [ 0.086275, 0.309804, 0.52549, 0.5 ],
					"id" : "obj-9",
					"maxclass" : "panel",
					"mode" : 1,
					"numinlets" : 1,
					"numoutlets" : 0,
					"patching_rect" : [ 495.0, 67.0, 128.0, 128.0 ],
					"presentation" : 1,
					"presentation_rect" : [ 0.0, 133.0, 259.0, 111.0 ],
					"proportion" : 0.336498,
					"pt1" : [ 0.455446, -0.026087 ],
					"pt2" : [ 0.465347, 0.930435 ],
					"rounded" : 0,
					"style" : ""
				}

			}
, 			{
				"box" : 				{
					"angle" : 0.0,
					"background" : 1,
					"bgcolor" : [ 0.0, 0.0, 0.0, 1.0 ],
					"id" : "obj-5",
					"maxclass" : "panel",
					"mode" : 0,
					"numinlets" : 1,
					"numoutlets" : 0,
					"patching_rect" : [ 371.0, 90.0, 128.0, 128.0 ],
					"presentation" : 1,
					"presentation_rect" : [ 0.0, 0.0, 268.0, 330.0 ],
					"proportion" : 0.39,
					"rounded" : 0,
					"style" : ""
				}

			}
 ],
		"lines" : [ 			{
				"patchline" : 				{
					"destination" : [ "obj-4", 1 ],
					"disabled" : 0,
					"hidden" : 0,
					"source" : [ "obj-10", 0 ]
				}

			}
, 			{
				"patchline" : 				{
					"destination" : [ "obj-10", 0 ],
					"disabled" : 0,
					"hidden" : 0,
					"midpoints" : [ 100.5, 481.5, 100.5, 481.5 ],
					"source" : [ "obj-11", 0 ]
				}

			}
, 			{
				"patchline" : 				{
					"destination" : [ "obj-15", 0 ],
					"disabled" : 0,
					"hidden" : 0,
					"source" : [ "obj-13", 0 ]
				}

			}
, 			{
				"patchline" : 				{
					"destination" : [ "obj-7", 0 ],
					"disabled" : 0,
					"hidden" : 0,
					"source" : [ "obj-15", 0 ]
				}

			}
, 			{
				"patchline" : 				{
					"destination" : [ "obj-13", 0 ],
					"disabled" : 0,
					"hidden" : 0,
					"source" : [ "obj-2", 0 ]
				}

			}
, 			{
				"patchline" : 				{
					"destination" : [ "obj-4", 0 ],
					"disabled" : 0,
					"hidden" : 0,
					"source" : [ "obj-32", 0 ]
				}

			}
, 			{
				"patchline" : 				{
					"destination" : [ "obj-39", 0 ],
					"disabled" : 0,
					"hidden" : 0,
					"source" : [ "obj-38", 0 ]
				}

			}
, 			{
				"patchline" : 				{
					"destination" : [ "obj-12", 0 ],
					"disabled" : 0,
					"hidden" : 0,
					"source" : [ "obj-39", 0 ]
				}

			}
, 			{
				"patchline" : 				{
					"destination" : [ "obj-14", 0 ],
					"disabled" : 0,
					"hidden" : 0,
					"source" : [ "obj-39", 1 ]
				}

			}
, 			{
				"patchline" : 				{
					"destination" : [ "obj-17", 0 ],
					"disabled" : 0,
					"hidden" : 0,
					"source" : [ "obj-39", 3 ]
				}

			}
, 			{
				"patchline" : 				{
					"destination" : [ "obj-18", 0 ],
					"disabled" : 0,
					"hidden" : 0,
					"source" : [ "obj-39", 2 ]
				}

			}
, 			{
				"patchline" : 				{
					"destination" : [ "obj-19", 0 ],
					"disabled" : 0,
					"hidden" : 0,
					"source" : [ "obj-39", 4 ]
				}

			}
, 			{
				"patchline" : 				{
					"destination" : [ "obj-3", 0 ],
					"disabled" : 0,
					"hidden" : 0,
					"source" : [ "obj-4", 0 ]
				}

			}
, 			{
				"patchline" : 				{
					"destination" : [ "obj-38", 0 ],
					"disabled" : 0,
					"hidden" : 0,
					"source" : [ "obj-7", 0 ]
				}

			}
, 			{
				"patchline" : 				{
					"destination" : [ "obj-8", 0 ],
					"disabled" : 0,
					"hidden" : 0,
					"source" : [ "obj-7", 0 ]
				}

			}
, 			{
				"patchline" : 				{
					"destination" : [ "obj-4", 0 ],
					"disabled" : 0,
					"hidden" : 0,
					"midpoints" : [ 100.5, 371.0, 39.5, 371.0 ],
					"source" : [ "obj-8", 0 ]
				}

			}
 ],
		"dependency_cache" : [ 			{
				"name" : "HarP.maxpat",
				"bootpath" : "~/Dropbox/PatchWork/Effects/Harmonizer",
				"type" : "JSON",
				"implicit" : 1
			}
, 			{
				"name" : "gizmo_loadme.maxpat",
				"bootpath" : "C74:/help/msp",
				"type" : "JSON",
				"implicit" : 1
			}
, 			{
				"name" : "list2poly.maxpat",
				"bootpath" : "~/Dropbox/Battenfield-Headley Patches/IBH/MMLE",
				"type" : "JSON",
				"implicit" : 1
			}
, 			{
				"name" : "harmonizer.json",
				"bootpath" : "~/Dropbox/PatchWork/Programs/Reflection 2016",
				"type" : "JSON",
				"implicit" : 1
			}
 ],
		"autosave" : 0
	}

}
